<svg width="7" height="19" viewBox="0 0 7 19" fill="none" xmlns="http://www.w3.org/2000/svg">
<path d="M0.765625 15.7656C0.765625 14.7865 1.03125 14.099 1.5625 13.7031C2.10417 13.3073 2.75521 13.1094 3.51562 13.1094C4.25521 13.1094 4.89062 13.3073 5.42188 13.7031C5.96354 14.099 6.23438 14.7865 6.23438 15.7656C6.23438 16.7031 5.96354 17.3802 5.42188 17.7969C4.89062 18.2135 4.25521 18.4219 3.51562 18.4219C2.75521 18.4219 2.10417 18.2135 1.5625 17.7969C1.03125 17.3802 0.765625 16.7031 0.765625 15.7656ZM0.765625 2.85938C0.765625 1.88021 1.03125 1.19271 1.5625 0.796875C2.10417 0.401042 2.75521 0.203125 3.51562 0.203125C4.25521 0.203125 4.89062 0.401042 5.42188 0.796875C5.96354 1.19271 6.23438 1.88021 6.23438 2.85938C6.23438 3.80729 5.96354 4.48958 5.42188 4.90625C4.89062 5.3125 4.25521 5.51562 3.51562 5.51562C2.75521 5.51562 2.10417 5.3125 1.5625 4.90625C1.03125 4.48958 0.765625 3.80729 0.765625 2.85938Z" fill="#00A4FF"/>
</svg>
