<svg width="6" height="19" viewBox="0 0 6 19" fill="none" xmlns="http://www.w3.org/2000/svg">
<path d="M0.265625 15.7656C0.265625 14.7865 0.53125 14.099 1.0625 13.7031C1.60417 13.3073 2.25521 13.1094 3.01562 13.1094C3.75521 13.1094 4.39062 13.3073 4.92188 13.7031C5.46354 14.099 5.73438 14.7865 5.73438 15.7656C5.73438 16.7031 5.46354 17.3802 4.92188 17.7969C4.39062 18.2135 3.75521 18.4219 3.01562 18.4219C2.25521 18.4219 1.60417 18.2135 1.0625 17.7969C0.53125 17.3802 0.265625 16.7031 0.265625 15.7656ZM0.265625 2.85938C0.265625 1.88021 0.53125 1.19271 1.0625 0.796875C1.60417 0.401042 2.25521 0.203125 3.01562 0.203125C3.75521 0.203125 4.39062 0.401042 4.92188 0.796875C5.46354 1.19271 5.73438 1.88021 5.73438 2.85938C5.73438 3.80729 5.46354 4.48958 4.92188 4.90625C4.39062 5.3125 3.75521 5.51562 3.01562 5.51562C2.25521 5.51562 1.60417 5.3125 1.0625 4.90625C0.53125 4.48958 0.265625 3.80729 0.265625 2.85938Z" fill="#4CC973"/>
</svg>
