<svg width="264" height="38" viewBox="0 0 264 38" fill="none" xmlns="http://www.w3.org/2000/svg">
<g clip-path="url(#clip0_4584_1173)">
<path d="M54.8267 7.55945H48.9785L51.3854 14.1387L51.6529 14.8698L59.9439 37.5316H65.7921L54.8267 7.55945Z" fill="white"/>
<path d="M73.8335 37.5316H67.9854V21.9994L82.9283 21.9758C82.9283 21.9758 87.1944 21.7088 87.1944 17.1703C87.1944 12.1869 82.9283 12.1869 82.9283 12.1869H67.9854V7.55945H83.5505C83.5505 7.55945 91.9051 7.55945 91.9051 16.9923C91.9051 25.1794 85.0614 25.8912 85.0614 25.8912L93.5712 37.5316H87.7231L80.1697 26.7811H73.8335V37.5316Z" fill="white"/>
<path d="M125.006 7.55945H146.936V12.629H125.006V7.55945Z" fill="white"/>
<path d="M125.006 20.3524H144.744V25.5449H125.006V20.3524Z" fill="white"/>
<path d="M125.006 32.4144H146.936V37.5316H125.006V32.4144Z" fill="white"/>
<path d="M149.129 7.55945H172.523V12.6766H149.129V7.55945Z" fill="white"/>
<path d="M163.751 17.0627V37.5316H157.933V17.0627H163.751Z" fill="white"/>
<path d="M174.715 21.9758V23.6421H180.315V21.9758C180.315 14.5896 186.181 12.4539 189.914 12.4539H198.002V7.55945H191.87C179.159 7.55945 174.715 15.2125 174.715 21.9758Z" fill="white"/>
<path d="M198.002 23.1303V22.9111H192.402V23.1303C192.402 30.5163 186.536 32.6521 182.804 32.6521H174.715V37.5465H180.848C193.557 37.5465 198.002 29.8934 198.002 23.1303Z" fill="white"/>
<path d="M95.7646 7.55945H101.613V22.1799L116.233 7.55945H122.208L101.613 28.0283V37.5516H95.7646V7.55945Z" fill="white"/>
<path d="M116.234 37.5317H122.082L111.482 24.3531L108.192 27.6627L116.234 37.5317Z" fill="white"/>
<path d="M37.2822 37.5516H43.1107L49.2875 21.1508L46.5751 13.7225L45.7497 15.8391L37.2822 37.5516Z" fill="white"/>
<path d="M231.646 6.09737V0.249146H221.947C221.947 0.249146 203.209 0.249146 203.209 19.0107C203.209 37.7723 221.947 37.5514 221.947 37.5514H231.646V31.6834H221.947C221.947 31.6834 209.822 31.1504 209.822 18.8451C209.822 6.53978 221.947 6.09737 221.947 6.09737H231.646Z" fill="white"/>
<path d="M0 0.249146V37.5315H5.84823V10.4835L16.8137 28.0282L35.0894 0.249146H28.5101L16.8137 18.1593L5.84823 0.249146H0Z" fill="white"/>
<path d="M29.2412 17.0629L35.0895 8.12854V37.5516H29.2412V17.0629Z" fill="white"/>
<path fill-rule="evenodd" clip-rule="evenodd" d="M247.089 32.2455V37.4213C239.673 36.5198 233.93 30.2034 233.93 22.5456C233.93 14.8876 239.673 8.57129 247.089 7.6698V12.8456C242.511 13.7026 239.047 17.7195 239.047 22.5456C239.047 27.3715 242.511 31.3885 247.089 32.2455ZM251.475 13.0116C255.685 14.1386 258.785 17.98 258.785 22.5456C258.785 27.1111 255.685 30.9525 251.475 32.0795V37.314C258.532 36.0999 263.902 29.9498 263.902 22.5456C263.902 15.1412 258.532 8.99112 251.475 7.77704V13.0116Z" fill="white"/>
</g>
<defs>
<clipPath id="clip0_4584_1173">
<rect width="263.901" height="37.5017" fill="white" transform="translate(0 0.249146)"/>
</clipPath>
</defs>
</svg>
