<svg width="190" height="54" viewBox="0 0 190 54" fill="none" xmlns="http://www.w3.org/2000/svg">
<g clip-path="url(#clip0_4584_1215)">
<path d="M141.132 53.163C140.064 53.163 139.095 52.9137 138.225 52.415C137.371 51.9163 136.687 51.2395 136.174 50.3847C135.675 49.5298 135.426 48.5752 135.426 47.5208C135.426 46.4807 135.668 45.5403 136.153 44.6997C136.637 43.8448 137.292 43.168 138.119 42.6693C138.945 42.1564 139.864 41.8999 140.876 41.8999C141.888 41.8999 142.785 42.1564 143.569 42.6693C144.353 43.168 144.972 43.8519 145.428 44.721C145.898 45.5759 146.133 46.5448 146.133 47.6277V48.2261H137.563C137.677 48.8245 137.898 49.3588 138.225 49.829C138.568 50.2992 138.995 50.6696 139.508 50.9403C140.035 51.2111 140.605 51.3464 141.218 51.3464C141.745 51.3464 142.251 51.268 142.735 51.1113C143.234 50.9403 143.647 50.6982 143.975 50.3847L145.343 51.7311C144.702 52.2155 144.039 52.5789 143.355 52.8211C142.686 53.049 141.945 53.163 141.132 53.163ZM137.584 46.6232H144.017C143.932 46.0532 143.732 45.5546 143.419 45.1271C143.12 44.6854 142.743 44.3434 142.286 44.1013C141.844 43.8448 141.36 43.7166 140.833 43.7166C140.292 43.7166 139.793 43.8376 139.337 44.0799C138.881 44.3221 138.496 44.6641 138.183 45.1058C137.884 45.5332 137.684 46.039 137.584 46.6232Z" fill="white"/>
<path d="M128.193 52.9706L123.491 42.0922H125.842L129.24 50.235L132.639 42.0922H134.904L130.245 52.9706H128.193Z" fill="white"/>
<path d="M116.444 52.971V42.0926H118.582V43.4818C118.924 42.9689 119.344 42.5699 119.842 42.285C120.355 41.9858 120.932 41.8362 121.574 41.8362C122.015 41.8504 122.378 41.9146 122.663 42.0285V43.952C122.464 43.8665 122.258 43.8095 122.044 43.781C121.83 43.7383 121.617 43.7169 121.403 43.7169C120.776 43.7169 120.22 43.8879 119.736 44.2298C119.251 44.5576 118.867 45.042 118.582 45.6831V52.971H116.444Z" fill="white"/>
<path d="M109.408 53.163C108.339 53.163 107.371 52.9137 106.501 52.415C105.646 51.9163 104.962 51.2395 104.449 50.3847C103.951 49.5298 103.701 48.5752 103.701 47.5208C103.701 46.4807 103.943 45.5403 104.428 44.6997C104.913 43.8448 105.568 43.168 106.394 42.6693C107.221 42.1564 108.139 41.8999 109.151 41.8999C110.163 41.8999 111.061 42.1564 111.844 42.6693C112.628 43.168 113.248 43.8519 113.704 44.721C114.174 45.5759 114.409 46.5448 114.409 47.6277V48.2261H105.839C105.953 48.8245 106.173 49.3588 106.501 49.829C106.843 50.2992 107.27 50.6696 107.783 50.9403C108.311 51.2111 108.881 51.3464 109.493 51.3464C110.02 51.3464 110.526 51.268 111.011 51.1113C111.51 50.9403 111.923 50.6982 112.25 50.3847L113.618 51.7311C112.977 52.2155 112.314 52.5789 111.63 52.8211C110.961 53.049 110.22 53.163 109.408 53.163ZM105.86 46.6232H112.293C112.207 46.0532 112.008 45.5546 111.694 45.1271C111.395 44.6854 111.018 44.3434 110.562 44.1013C110.12 43.8448 109.636 43.7166 109.109 43.7166C108.567 43.7166 108.068 43.8376 107.613 44.0799C107.157 44.3221 106.772 44.6641 106.458 45.1058C106.159 45.5332 105.96 46.039 105.86 46.6232Z" fill="white"/>
<path d="M97.8938 53.1846C96.9537 53.1846 96.0704 53.0492 95.244 52.7785C94.4318 52.4935 93.7263 52.0946 93.1279 51.5816L94.3033 50.1711C94.8589 50.6128 95.4288 50.9547 96.0135 51.1969C96.6119 51.4249 97.2173 51.5389 97.8298 51.5389C98.5994 51.5389 99.2261 51.3893 99.7107 51.0901C100.195 50.7909 100.438 50.399 100.438 49.9146C100.438 49.5157 100.295 49.2022 100.01 48.9742C99.7249 48.7463 99.283 48.5895 98.6847 48.504L96.7185 48.2262C95.6356 48.0695 94.8234 47.7346 94.2819 47.2217C93.7405 46.7088 93.4698 46.0249 93.4698 45.17C93.4698 44.5146 93.6481 43.9447 94.0041 43.4602C94.3607 42.9615 94.8589 42.5768 95.5005 42.3061C96.1415 42.0211 96.8897 41.8787 97.7445 41.8787C98.5283 41.8787 99.283 41.9926 100.01 42.2207C100.737 42.4486 101.435 42.8048 102.105 43.2892L101.015 44.6998C100.416 44.3009 99.8316 44.0088 99.2617 43.8235C98.706 43.6383 98.1432 43.5457 97.5733 43.5457C96.9181 43.5457 96.3909 43.6882 95.9916 43.9732C95.5929 44.2439 95.3933 44.6 95.3933 45.0417C95.3933 45.4407 95.5289 45.7542 95.7997 45.9821C96.0846 46.1959 96.5473 46.3454 97.1889 46.4309L99.155 46.7088C100.238 46.8655 101.057 47.2003 101.613 47.7133C102.169 48.212 102.446 48.8887 102.446 49.7436C102.446 50.399 102.247 50.9904 101.848 51.5175C101.449 52.0304 100.907 52.4365 100.224 52.7358C99.5395 53.0349 98.7629 53.1846 97.8938 53.1846Z" fill="white"/>
<path d="M87.0133 53.163C85.9446 53.163 84.9754 52.9137 84.1063 52.415C83.2515 51.9163 82.5679 51.2395 82.0548 50.3847C81.556 49.5298 81.3066 48.5752 81.3066 47.5208C81.3066 46.4807 81.5489 45.5403 82.0335 44.6997C82.5175 43.8448 83.1733 43.168 83.9997 42.6693C84.8261 42.1564 85.7449 41.8999 86.7568 41.8999C87.768 41.8999 88.6661 42.1564 89.4492 42.6693C90.233 43.168 90.8526 43.8519 91.3088 44.721C91.7791 45.5759 92.0143 46.5448 92.0143 47.6277V48.2261H83.444C83.5578 48.8245 83.7787 49.3588 84.1063 49.829C84.4482 50.2992 84.8759 50.6696 85.3889 50.9403C85.9161 51.2111 86.486 51.3464 87.0986 51.3464C87.6258 51.3464 88.1317 51.268 88.6157 51.1113C89.1145 50.9403 89.528 50.6982 89.8556 50.3847L91.2235 51.7311C90.5819 52.2155 89.9196 52.5789 89.236 52.8211C88.566 53.049 87.8255 53.163 87.0133 53.163ZM83.4654 46.6232H89.8983C89.813 46.0532 89.6133 45.5546 89.2999 45.1271C89.0008 44.6854 88.6228 44.3434 88.1673 44.1013C87.7253 43.8448 87.2407 43.7166 86.7141 43.7166C86.1726 43.7166 85.6738 43.8376 85.2177 44.0799C84.7615 44.3221 84.3771 44.6641 84.0637 45.1058C83.7645 45.5332 83.5649 46.039 83.4654 46.6232Z" fill="white"/>
<path d="M68.6143 52.9706V38.0101H75.389C76.3866 38.0101 77.2556 38.1954 77.9961 38.5658C78.7515 38.9362 79.3356 39.4563 79.7491 40.126C80.1762 40.7814 80.3901 41.5508 80.3901 42.4341C80.3901 43.4173 80.1122 44.265 79.5565 44.9774C79.0009 45.6899 78.2527 46.2028 77.3125 46.5163L80.6466 52.9706H78.1674L75.0685 46.8368H70.8583V52.9706H68.6143ZM70.8583 44.9561H75.2178C76.1016 44.9561 76.8066 44.7352 77.3338 44.2935C77.8753 43.8376 78.146 43.2249 78.146 42.4555C78.146 41.7146 77.8753 41.1162 77.3338 40.6602C76.8066 40.2043 76.1016 39.9764 75.2178 39.9764H70.8583V44.9561Z" fill="white"/>
<path d="M186.3 34.5372V19.5767L188.437 19.1707V34.5372H186.3Z" fill="white"/>
<path d="M178.366 34.7298C177.583 34.7298 176.892 34.5945 176.294 34.3237C175.695 34.0388 175.225 33.6469 174.883 33.1483C174.541 32.6496 174.37 32.0725 174.37 31.4171C174.37 30.3912 174.762 29.5862 175.545 29.0021C176.329 28.4036 177.405 28.1044 178.773 28.1044C179.842 28.1044 180.831 28.311 181.743 28.7242V27.5701C181.743 26.7865 181.516 26.2023 181.06 25.8176C180.618 25.4329 179.962 25.2405 179.093 25.2405C178.595 25.2405 178.074 25.3189 177.533 25.4757C176.992 25.6181 176.386 25.8461 175.717 26.1596L174.926 24.5567C175.752 24.172 176.522 23.8941 177.234 23.7232C177.946 23.5379 178.666 23.4453 179.393 23.4453C180.803 23.4453 181.893 23.7801 182.663 24.4498C183.446 25.1194 183.838 26.074 183.838 27.3136V34.5375H181.743V33.5971C181.259 33.9818 180.739 34.2667 180.183 34.452C179.628 34.6372 179.022 34.7298 178.366 34.7298ZM176.422 31.3744C176.422 31.9016 176.643 32.329 177.085 32.6567C177.54 32.9701 178.131 33.1269 178.858 33.1269C179.428 33.1269 179.948 33.0485 180.419 32.8918C180.903 32.7208 181.344 32.4572 181.743 32.101V30.263C181.33 30.0208 180.895 29.8498 180.44 29.7501C179.998 29.6361 179.499 29.5791 178.943 29.5791C178.16 29.5791 177.54 29.743 177.085 30.0707C176.643 30.3841 176.422 30.8187 176.422 31.3744Z" fill="white"/>
<path d="M162.799 34.5375V23.659H164.936V24.7703C165.777 23.887 166.867 23.4453 168.206 23.4453C169.047 23.4453 169.78 23.6234 170.408 23.9796C171.049 24.3358 171.547 24.8345 171.903 25.4757C172.274 26.1168 172.459 26.8577 172.459 27.6984V34.5375H170.322V28.0617C170.322 27.2068 170.079 26.5371 169.595 26.0527C169.125 25.554 168.463 25.3047 167.608 25.3047C167.038 25.3047 166.525 25.4258 166.069 25.668C165.613 25.9102 165.235 26.2593 164.936 26.7153V34.5375H162.799Z" fill="white"/>
<path d="M155.115 34.7512C154.061 34.7512 153.099 34.5018 152.23 34.0031C151.375 33.5044 150.698 32.8277 150.199 31.9728C149.701 31.1179 149.451 30.1633 149.451 29.1089C149.451 28.0546 149.701 27.0999 150.199 26.2451C150.698 25.3902 151.375 24.7134 152.23 24.2147C153.099 23.7018 154.061 23.4453 155.115 23.4453C156.183 23.4453 157.145 23.7018 158 24.2147C158.855 24.7134 159.532 25.3902 160.03 26.2451C160.529 27.0999 160.779 28.0546 160.779 29.1089C160.779 30.1633 160.529 31.1179 160.03 31.9728C159.532 32.8277 158.855 33.5044 158 34.0031C157.145 34.5018 156.183 34.7512 155.115 34.7512ZM155.115 32.8704C155.785 32.8704 156.39 32.7066 156.931 32.3789C157.473 32.0369 157.9 31.581 158.213 31.011C158.527 30.4411 158.684 29.8 158.684 29.0875C158.684 28.3894 158.52 27.7625 158.192 27.2068C157.879 26.6369 157.452 26.1809 156.91 25.839C156.383 25.497 155.785 25.326 155.115 25.326C154.445 25.326 153.84 25.497 153.298 25.839C152.771 26.1809 152.343 26.6369 152.016 27.2068C151.702 27.7625 151.545 28.3894 151.545 29.0875C151.545 29.8 151.702 30.4411 152.016 31.011C152.329 31.581 152.757 32.0369 153.298 32.3789C153.84 32.7066 154.445 32.8704 155.115 32.8704Z" fill="white"/>
<path d="M145.289 34.5375V23.659H147.426V34.5375H145.289ZM146.358 21.9065C146.002 21.9065 145.695 21.7782 145.439 21.5218C145.182 21.2511 145.054 20.9376 145.054 20.5814C145.054 20.211 145.182 19.9047 145.439 19.6624C145.695 19.406 146.002 19.2777 146.358 19.2777C146.728 19.2777 147.041 19.406 147.298 19.6624C147.554 19.9047 147.683 20.211 147.683 20.5814C147.683 20.9376 147.554 21.2511 147.298 21.5218C147.041 21.7782 146.728 21.9065 146.358 21.9065Z" fill="white"/>
<path d="M141.642 34.7298C140.587 34.7298 139.782 34.4875 139.226 34.0031C138.671 33.5044 138.393 32.7849 138.393 31.8445V25.4542H136.085V23.6589H138.393V20.8806L140.509 20.3677V23.6589H143.715V25.4542H140.509V31.353C140.509 31.9086 140.63 32.3076 140.872 32.5498C141.129 32.7778 141.542 32.8917 142.111 32.8917C142.411 32.8917 142.674 32.8704 142.902 32.8276C143.145 32.7849 143.401 32.7208 143.672 32.6353V34.4306C143.387 34.5303 143.052 34.6015 142.667 34.6442C142.297 34.7013 141.955 34.7298 141.642 34.7298Z" fill="white"/>
<path d="M129.361 34.7298C128.577 34.7298 127.886 34.5945 127.288 34.3237C126.689 34.0388 126.219 33.6469 125.877 33.1483C125.535 32.6496 125.364 32.0725 125.364 31.4171C125.364 30.3912 125.756 29.5862 126.54 29.0021C127.323 28.4036 128.399 28.1044 129.767 28.1044C130.836 28.1044 131.826 28.311 132.738 28.7242V27.5701C132.738 26.7865 132.51 26.2023 132.054 25.8176C131.612 25.4329 130.957 25.2405 130.087 25.2405C129.589 25.2405 129.069 25.3189 128.528 25.4757C127.986 25.6181 127.38 25.8461 126.711 26.1596L125.92 24.5567C126.746 24.172 127.516 23.8941 128.229 23.7232C128.941 23.5379 129.66 23.4453 130.387 23.4453C131.797 23.4453 132.887 23.7801 133.657 24.4498C134.44 25.1194 134.832 26.074 134.832 27.3136V34.5375H132.738V33.5971C132.253 33.9818 131.733 34.2667 131.178 34.452C130.622 34.6372 130.016 34.7298 129.361 34.7298ZM127.416 31.3744C127.416 31.9016 127.637 32.329 128.079 32.6567C128.535 32.9701 129.126 33.1269 129.852 33.1269C130.422 33.1269 130.942 33.0485 131.413 32.8918C131.897 32.7208 132.339 32.4572 132.738 32.101V30.263C132.324 30.0208 131.89 29.8498 131.434 29.7501C130.992 29.6361 130.494 29.5791 129.938 29.5791C129.154 29.5791 128.535 29.743 128.079 30.0707C127.637 30.3841 127.416 30.8187 127.416 31.3744Z" fill="white"/>
<path d="M113.794 34.5375V23.659H115.931V24.7703C116.771 23.887 117.861 23.4453 119.201 23.4453C120.041 23.4453 120.775 23.6234 121.402 23.9796C122.043 24.3358 122.542 24.8345 122.899 25.4757C123.269 26.1168 123.454 26.8577 123.454 27.6984V34.5375H121.317V28.0617C121.317 27.2068 121.075 26.5371 120.59 26.0527C120.12 25.554 119.457 25.3047 118.602 25.3047C118.033 25.3047 117.52 25.4258 117.064 25.668C116.608 25.9102 116.23 26.2593 115.931 26.7153V34.5375H113.794Z" fill="white"/>
<path d="M105.863 34.5375V23.659H108V25.0483C108.342 24.5353 108.762 24.1364 109.261 23.8514C109.774 23.5522 110.351 23.4026 110.992 23.4026C111.434 23.4169 111.797 23.481 112.082 23.5949V25.5185C111.883 25.4329 111.677 25.3759 111.463 25.3474C111.249 25.3047 111.035 25.2833 110.822 25.2833C110.194 25.2833 109.639 25.4543 109.155 25.7963C108.67 26.124 108.285 26.6084 108 27.2496V34.5375H105.863Z" fill="white"/>
<path d="M98.8267 34.7298C97.758 34.7298 96.7889 34.4805 95.9198 33.9818C95.065 33.4831 94.3813 32.8063 93.8683 31.9514C93.3695 31.0965 93.1201 30.1419 93.1201 29.0875C93.1201 28.0474 93.3624 27.107 93.847 26.2664C94.331 25.4115 94.9868 24.7347 95.8132 24.2361C96.6396 23.7231 97.5584 23.4667 98.5702 23.4667C99.5815 23.4667 100.48 23.7231 101.263 24.2361C102.046 24.7347 102.667 25.4186 103.122 26.2878C103.593 27.1427 103.828 28.1115 103.828 29.1944V29.7928H95.2575C95.3713 30.3912 95.5922 30.9256 95.9198 31.3958C96.2616 31.8659 96.6893 32.2364 97.2024 32.5071C97.7296 32.7778 98.2995 32.9131 98.912 32.9131C99.4393 32.9131 99.9452 32.8348 100.429 32.6781C100.928 32.5071 101.341 32.2649 101.669 31.9514L103.037 33.2978C102.396 33.7823 101.733 34.1456 101.049 34.3878C100.379 34.6158 99.6389 34.7298 98.8267 34.7298ZM95.2788 28.1899H101.712C101.626 27.62 101.427 27.1213 101.113 26.6938C100.814 26.2522 100.437 25.9102 99.9807 25.668C99.5388 25.4115 99.0548 25.2833 98.5276 25.2833C97.9861 25.2833 97.4873 25.4044 97.0312 25.6466C96.5756 25.8888 96.1905 26.2308 95.8772 26.6725C95.578 27.0999 95.3784 27.6057 95.2788 28.1899Z" fill="white"/>
<path d="M90.13 34.7298C89.0761 34.7298 88.271 34.4875 87.7153 34.0031C87.1597 33.5044 86.8818 32.7849 86.8818 31.8445V25.4542H84.5732V23.6589H86.8818V20.8806L88.9973 20.3677V23.6589H92.2034V25.4542H88.9973V31.353C88.9973 31.9086 89.1187 32.3076 89.361 32.5498C89.617 32.7778 90.0305 32.8917 90.6003 32.8917C90.8995 32.8917 91.1631 32.8704 91.3912 32.8276C91.6335 32.7849 91.89 32.7208 92.1607 32.6353V34.4306C91.8758 34.5303 91.5405 34.6015 91.156 34.6442C90.7858 34.7013 90.4434 34.7298 90.13 34.7298Z" fill="white"/>
<path d="M73.6592 34.5375V23.659H75.796V24.7703C76.6366 23.887 77.7266 23.4453 79.066 23.4453C79.9067 23.4453 80.6407 23.6234 81.2674 23.9796C81.9084 24.3358 82.4072 24.8345 82.7632 25.4757C83.1341 26.1168 83.3189 26.8577 83.3189 27.6984V34.5375H81.1821V28.0617C81.1821 27.2068 80.9398 26.5371 80.4552 26.0527C79.9849 25.554 79.3226 25.3047 78.4677 25.3047C77.8978 25.3047 77.3848 25.4258 76.9287 25.668C76.4731 25.9102 76.0951 26.2593 75.796 26.7153V34.5375H73.6592Z" fill="white"/>
<path d="M68.6143 34.5375V19.5769H70.8583V34.5375H68.6143Z" fill="white"/>
<path d="M48.7392 26.8521C52.7026 30.1496 52.7576 32.4875 52.7576 32.4875C51.0787 31.3424 44.2464 27.0832 40.0859 24.5696C34.5768 21.2414 23.0314 16.071 22.6787 9.61804C26.5701 12.7043 44.7758 23.5546 48.7392 26.8521Z" fill="white"/>
<path d="M52.8332 36.3025C52.8391 36.2671 52.8451 36.2316 52.8511 36.196C52.9589 35.5598 52.9821 34.9485 52.9326 34.3621C43.7033 28.396 32.8252 21.9419 28.0752 19.1322C28.2786 23.8244 35.3861 27.3513 40.7303 30.0032C41.6628 30.4659 42.5416 30.9019 43.3206 31.313C43.8004 31.566 44.37 31.867 44.9902 32.1946C47.7671 33.6618 51.558 35.6648 52.8332 36.3025Z" fill="white"/>
<path d="M56.4685 46.9616C55.9263 46.6048 55.4466 46.2371 55.0266 45.849C53.6392 46.7722 49.9629 48.0992 47.7754 48.453C49.2809 49.7263 51.4153 51.1133 53.1418 49.8164C54.4544 48.8304 55.5645 47.8594 56.4685 46.9616Z" fill="white"/>
<path d="M54.0851 44.8374C53.7328 44.4144 53.44 43.9604 53.2033 43.4649C49.2069 43.9765 44.8064 43.7804 40.9121 42.2914C42.692 44.9502 45.4812 47.4647 49.6102 46.2788C51.1651 45.8323 52.8525 45.3292 54.0851 44.8374Z" fill="white"/>
<path d="M52.7022 41.9871C52.6038 41.4997 52.5424 40.9779 52.5165 40.4155C47.7002 39.6099 38.8647 36.3248 35.8682 34.8738C36.2683 39.198 42.6316 41.432 47.3935 41.8162C49.1135 41.9549 51.2614 42.0258 52.7022 41.9871Z" fill="white"/>
<path d="M52.5083 39.3176C52.5217 38.8458 52.5553 38.348 52.6084 37.8215C46.7988 34.4673 35.1224 28.4805 31.917 26.8846C33.1588 32.3391 37.8254 34.0493 41.9271 35.5525C42.8269 35.8822 43.6995 36.202 44.5028 36.5491C45.8651 37.1379 47.8034 37.8181 49.4864 38.4087C50.7412 38.849 51.8541 39.2396 52.4805 39.5053L52.5083 39.3176Z" fill="white"/>
<path fill-rule="evenodd" clip-rule="evenodd" d="M58.0126 43.5842C56.7321 42.5928 55.5547 40.9504 56.6639 35.9844C58.1883 29.1591 53.9794 26.1567 50.912 23.9686C50.8037 23.8913 50.6968 23.8151 50.5917 23.7397C49.194 22.7381 47.5412 21.5544 45.7614 20.2797C37.6064 14.4393 26.784 6.68851 25.6157 5.78675C25.4086 5.62695 25.1958 5.46278 24.9789 5.29545C22.674 3.51782 19.9068 1.38365 18.7412 0.341797C19.1043 4.641 19.6488 5.82272 28.1926 11.4338C33.3947 14.8503 39.2424 18.8965 43.7026 21.9827C45.9976 23.5707 47.9252 24.9045 49.2086 25.7676C52.3056 27.8799 55.1068 31.0289 54.284 35.1175C53.1082 40.9602 53.5888 43.5028 57.1652 45.9421L58.0126 44.6996V43.5842Z" fill="white"/>
<path d="M50.9437 27.1056L52.013 25.6298C51.9395 25.5781 51.8648 25.5264 51.7892 25.4744C51.4259 25.2248 50.9187 24.8661 50.2923 24.4165L49.2783 25.816C49.8515 26.2105 50.4137 26.6406 50.9437 27.1056Z" fill="white"/>
<path d="M47.6104 24.6808L48.6562 23.2376C48.1302 22.8548 47.5612 22.439 46.9562 21.9955L45.876 23.4864C46.5011 23.9181 47.0819 24.3184 47.6104 24.6808Z" fill="white"/>
<path d="M56.9518 32.4111C56.8486 31.6365 56.6278 30.8637 56.2276 30.0768L55.0723 31.6713L56.9835 33.0562C56.9798 32.8362 56.9691 32.6213 56.9518 32.4111Z" fill="white"/>
<path d="M56.8382 35.0613L56.484 34.8046L55.0723 36.753L56.3519 37.68C56.4232 37.1624 56.5254 36.599 56.6626 35.9846C56.7332 35.6688 56.7915 35.3611 56.8382 35.0613Z" fill="white"/>
<path d="M56.2557 38.5725L56.2173 38.5447L54.8057 40.4931L56.6212 41.8086C56.3087 41.0406 56.1457 40.0124 56.2557 38.5725Z" fill="white"/>
<path d="M52.5025 31.5019C52.7481 32.1319 52.7565 32.4879 52.7565 32.4879C52.4172 32.2565 51.8675 31.8979 51.1719 31.4522L51.8753 30.4813C52.1221 30.8426 52.3301 31.1855 52.5025 31.5019Z" fill="white"/>
<path d="M45.34 27.7909C45.0087 27.5857 44.6768 27.3804 44.3462 27.1763L43.585 26.6248L44.8203 24.9199L46.5251 26.1552L45.34 27.7909Z" fill="white"/>
<path d="M49.42 30.3393C48.7967 29.9462 48.1235 29.5238 47.4238 29.0869L48.5605 27.5912L50.3978 28.9271L49.42 30.3393Z" fill="white"/>
<path d="M52.8487 36.1964C52.8542 36.1637 52.8597 36.131 52.8653 36.0981C52.9623 35.5252 52.9908 34.9726 52.9594 34.4401C52.7173 34.2884 52.4682 34.1324 52.2126 33.9724L51.4824 34.7712L52.8487 36.1964Z" fill="white"/>
<path d="M19.9835 1.42916L19.126 2.61269C18.8533 1.73199 18.7538 0.941487 18.7549 0.403076C19.0417 0.656727 19.458 1.00371 19.9835 1.42916Z" fill="white"/>
<path d="M43.85 22.0798C43.2906 21.6812 42.7171 21.2738 42.1338 20.8602L43.2731 19.2878C43.8553 19.7184 44.4211 20.1362 44.9669 20.5383L43.85 22.0798Z" fill="white"/>
<path d="M32.323 28.2594L32.9344 27.4155L32.3604 27.1207C32.1457 27.0106 32.001 26.9368 31.9414 26.9072C31.9994 27.2753 32.1218 27.7407 32.323 28.2594Z" fill="white"/>
<path d="M34.3688 28.1261C34.7751 28.3344 35.3618 28.6839 35.8382 28.9276L34.9032 30.2633L33.5674 29.3283L34.3688 28.1261Z" fill="white"/>
<path d="M33.07 11.6731C33.546 12.0314 34.0246 12.3913 34.5042 12.7513L33.5505 14.0678L32.0977 13.0152L33.07 11.6731Z" fill="white"/>
<path d="M38.1292 15.4651C37.5393 15.0247 36.9448 14.5804 36.3488 14.1343L35.1221 15.8274L36.922 17.1315L38.1292 15.4651Z" fill="white"/>
<path d="M39.9182 16.7983C40.375 17.1383 40.827 17.4743 41.2727 17.8052L40.4106 18.9951L39.0439 18.0049L39.9182 16.7983Z" fill="white"/>
<path d="M22.9727 9.87854L22.7861 10.1359C22.987 10.5737 23.2469 11.077 23.5666 11.622L24.1905 10.7609L22.9727 9.87854Z" fill="white"/>
<path d="M54.5078 34.0502C54.4693 33.5825 54.431 33.1149 54.374 32.6543L55.8936 34.1006L54.8145 35.3685L54.4807 35.7336C54.5421 35.2659 54.5769 34.8619 54.549 34.5413C54.5351 34.3816 54.5221 34.2218 54.509 34.062L54.5086 34.0588L54.5083 34.0555L54.5078 34.0502Z" fill="white"/>
<path d="M53.9268 39.2713C53.9464 38.4173 54.0503 37.6018 54.1574 36.8693L55.4314 37.7923L54.2107 39.4771L53.9268 39.2713Z" fill="white"/>
<path d="M30.4951 22.577L31.5027 21.1864C32.0372 21.5006 32.6477 21.8641 33.3192 22.2674L32.2 23.8122L30.4951 22.577Z" fill="white"/>
<path d="M42.4184 27.8006L42.0769 27.5532C41.6955 27.3172 41.3143 27.0815 40.9346 26.8469L39.959 28.1935L41.385 29.2267L42.4184 27.8006Z" fill="white"/>
<path d="M39.4269 25.9755C38.8176 25.6002 38.2166 25.2306 37.6285 24.8696L36.584 26.3111L38.2889 27.5463L39.4269 25.9755Z" fill="white"/>
<path d="M36.3731 24.1186L35.2381 25.6851L33.5332 24.4499L34.5691 23.0203C35.1442 23.3691 35.7478 23.7367 36.3731 24.1186Z" fill="white"/>
<path d="M41.0801 22.2485L42.7848 23.4838L41.5497 25.1886L39.8447 23.9534L41.0801 22.2485Z" fill="white"/>
<path d="M37.6074 19.8439L39.3122 21.0792L38.077 22.784L36.3721 21.5487L37.6074 19.8439Z" fill="white"/>
<path d="M34.2685 17.5828L35.9733 18.818L34.7381 20.5229L33.0332 19.2876L34.2685 17.5828Z" fill="white"/>
<path d="M27.5571 13.0597L28.7749 13.942L27.8925 15.1597L26.6748 14.2774L27.5571 13.0597Z" fill="white"/>
<path d="M25.4204 11.5876L26.3565 12.2659L25.6783 13.202L24.7422 12.5238L25.4204 11.5876Z" fill="white"/>
<path d="M30.047 9.6925L31.2726 10.5804L30.3846 11.8058L29.1592 10.9179L30.047 9.6925Z" fill="white"/>
<path d="M26.8306 7.5166L27.9756 8.34626L27.146 9.49138L26.001 8.66166L26.8306 7.5166Z" fill="white"/>
<path d="M24.1083 5.63123L25.0719 6.32945L24.3738 7.29305L23.4102 6.59485L24.1083 5.63123Z" fill="white"/>
<path d="M21.562 3.48511L22.7487 4.34957L21.8137 5.55175L20.7451 4.61672L21.562 3.48511Z" fill="white"/>
<path d="M28.0908 19.1763C28.0908 19.8441 28.358 20.6456 28.6251 21.1799L29.6937 20.1113L28.0908 19.1763Z" fill="white"/>
<path d="M54.9769 28.2507C54.5551 27.7641 54.0531 27.2681 53.4578 26.7594L52.2676 28.2592L53.9906 29.6121L54.9769 28.2507Z" fill="white"/>
<path d="M43.5303 28.4348C43.8589 28.6685 45.1972 29.4642 45.5889 29.7287L43.7104 29.7454L43.5303 28.4348Z" fill="white"/>
<path d="M30.6553 15.0021L32.36 16.2373L31.1249 17.9422L29.4199 16.7069L30.6553 15.0021Z" fill="white"/>
<path d="M51.988 37.6102C54.1197 42.9657 56.2724 43.1442 58.0129 43.1442V45.5542C53.6838 45.5542 51.8541 43.7244 49.5334 38.235C47.9093 34.3937 43.8208 33.3705 40.072 33.3705C35.5198 33.4002 24.0579 33.2058 14.6334 33.3705C4.4133 33.549 3.29757 32.8795 0.575195 29.5323C2.2711 29.7555 6.28772 29.9787 9.3225 30.1572C11.1174 30.2627 30.4767 30.6927 40.072 30.9158C43.8644 31.0041 49.3102 30.8832 51.988 37.6102Z" fill="white"/>
<path d="M40.2951 34.5309C45.4275 35.0218 46.7902 36.9223 46.7902 36.9223C44.758 36.9223 36.7136 37.2532 31.8602 37.521C25.4336 37.8756 12.9821 40.1095 9.05469 34.9771C14.0085 35.3342 35.1627 34.0399 40.2951 34.5309Z" fill="white"/>
<path d="M49.0016 40.0316C48.9864 39.9991 48.9714 39.9665 48.9563 39.9337C48.6869 39.3474 48.3616 38.8292 47.9903 38.3726C37.004 38.6442 24.3804 39.4415 18.873 39.7968C21.685 43.5587 29.5441 42.4675 35.4533 41.6471C36.4844 41.5039 37.4561 41.369 38.3314 41.2695C38.8703 41.2083 39.5105 41.136 40.2075 41.0572C43.3283 40.7047 47.5887 40.2233 49.0016 40.0316Z" fill="white"/>
<path d="M58.0113 46.7885C57.3623 46.7991 56.7588 46.7658 56.1932 46.6818C55.5672 48.2262 53.2778 51.3939 51.6699 52.9188C53.6312 53.1224 56.176 53.0656 56.8716 51.0214C57.4004 49.4672 57.7704 48.0395 58.0113 46.7885Z" fill="white"/>
<path d="M54.8446 46.3771C54.3153 46.2261 53.8175 46.0161 53.3429 45.7401C50.3295 48.4145 46.5836 50.7321 42.5273 51.6962C45.496 52.8898 49.2171 53.3956 51.96 50.0893C52.9929 48.8443 54.1035 47.4779 54.8446 46.3771Z" fill="white"/>
<path d="M52.0971 44.802C51.7412 44.4549 51.3964 44.0583 51.0581 43.6083C46.6252 45.6566 37.4749 47.9211 34.1816 48.4108C36.9488 51.7578 43.4645 50.0178 47.615 47.6521C49.1141 46.7975 50.9285 45.6458 52.0971 44.802Z" fill="white"/>
<path d="M50.4328 42.7055C50.178 42.3082 49.9254 41.878 49.6726 41.4132C42.983 41.9156 29.9633 43.5489 26.416 44.0367C30.5152 47.8431 35.3342 46.6265 39.5698 45.5571C40.4989 45.3226 41.4 45.0951 42.2592 44.9293C43.7165 44.648 45.7011 44.1178 47.4241 43.6575C48.7089 43.3142 49.8484 43.0098 50.5156 42.8763L50.4328 42.7055Z" fill="white"/>
</g>
<defs>
<clipPath id="clip0_4584_1215">
<rect width="188.977" height="53.3163" fill="white" transform="translate(0.37793 0.341797)"/>
</clipPath>
</defs>
</svg>
