<svg width="101" height="21" viewBox="0 0 101 21" fill="none" xmlns="http://www.w3.org/2000/svg">
<path d="M9.33155 2.36506C9.57342 1.62064 10.6266 1.62064 10.8685 2.36506L12.1862 6.42061C12.2944 6.75353 12.6046 6.97893 12.9546 6.97893H17.2189C18.0016 6.97893 18.3271 7.98054 17.6938 8.44061L14.244 10.9471C13.9608 11.1528 13.8423 11.5175 13.9504 11.8505L15.2682 15.906C15.5101 16.6504 14.658 17.2695 14.0248 16.8094L10.5749 14.3029C10.2917 14.0972 9.90826 14.0972 9.62507 14.3029L6.17521 16.8094C5.54197 17.2695 4.68995 16.6504 4.93182 15.906L6.24955 11.8505C6.35772 11.5175 6.23922 11.1528 5.95603 10.9471L2.50617 8.44062C1.87293 7.98054 2.19837 6.97893 2.9811 6.97893H7.24536C7.59541 6.97893 7.90565 6.75353 8.01382 6.42061L9.33155 2.36506Z" fill="#FFA41C"/>
<path d="M29.5317 2.36506C29.7736 1.62064 30.8268 1.62064 31.0686 2.36506L32.3864 6.42061C32.4945 6.75353 32.8048 6.97893 33.1548 6.97893H37.4191C38.2018 6.97893 38.5273 7.98054 37.894 8.44061L34.4442 10.9471C34.161 11.1528 34.0425 11.5175 34.1506 11.8505L35.4684 15.906C35.7102 16.6504 34.8582 17.2695 34.225 16.8094L30.7751 14.3029C30.4919 14.0972 30.1085 14.0972 29.8253 14.3029L26.3754 16.8094C25.7422 17.2695 24.8901 16.6504 25.132 15.906L26.4497 11.8505C26.5579 11.5175 26.4394 11.1528 26.1562 10.9471L22.7064 8.44062C22.0731 7.98054 22.3986 6.97893 23.1813 6.97893H27.4456C27.7956 6.97893 28.1058 6.75353 28.214 6.42061L29.5317 2.36506Z" fill="#FFA41C"/>
<path d="M49.7314 2.36506C49.9733 1.62064 51.0265 1.62064 51.2684 2.36506L52.5861 6.42061C52.6943 6.75353 53.0045 6.97893 53.3545 6.97893H57.6188C58.4015 6.97893 58.727 7.98054 58.0937 8.44061L54.6439 10.9471C54.3607 11.1528 54.2422 11.5175 54.3503 11.8505L55.6681 15.906C55.91 16.6504 55.0579 17.2695 54.4247 16.8094L50.9748 14.3029C50.6916 14.0972 50.3082 14.0972 50.025 14.3029L46.5751 16.8094C45.9419 17.2695 45.0898 16.6504 45.3317 15.906L46.6495 11.8505C46.7576 11.5175 46.6391 11.1528 46.3559 10.9471L42.9061 8.44062C42.2728 7.98054 42.5983 6.97893 43.381 6.97893H47.6453C47.9953 6.97893 48.3055 6.75353 48.4137 6.42061L49.7314 2.36506Z" fill="#FFA41C"/>
<path d="M69.9316 2.36506C70.1735 1.62064 71.2267 1.62064 71.4686 2.36506L72.7863 6.42061C72.8945 6.75353 73.2047 6.97893 73.5547 6.97893H77.819C78.6017 6.97893 78.9272 7.98054 78.2939 8.44061L74.8441 10.9471C74.5609 11.1528 74.4424 11.5175 74.5505 11.8505L75.8683 15.906C76.1102 16.6504 75.2581 17.2695 74.6249 16.8094L71.175 14.3029C70.8918 14.0972 70.5084 14.0972 70.2252 14.3029L66.7753 16.8094C66.1421 17.2695 65.29 16.6504 65.5319 15.906L66.8497 11.8505C66.9578 11.5175 66.8393 11.1528 66.5561 10.9471L63.1063 8.44062C62.473 7.98054 62.7985 6.97893 63.5812 6.97893H67.8455C68.1955 6.97893 68.5057 6.75353 68.6139 6.42061L69.9316 2.36506Z" fill="#FFA41C"/>
<path d="M90.1314 2.36506C90.3732 1.62064 91.4264 1.62064 91.6683 2.36506L92.986 6.42061C93.0942 6.75353 93.4044 6.97893 93.7544 6.97893H98.0187C98.8014 6.97893 99.1269 7.98054 98.4936 8.44061L95.0438 10.9471C94.7606 11.1528 94.6421 11.5175 94.7503 11.8505L96.068 15.906C96.3099 16.6504 95.4578 17.2695 94.8246 16.8094L91.3747 14.3029C91.0915 14.0972 90.7081 14.0972 90.4249 14.3029L86.975 16.8094C86.3418 17.2695 85.4898 16.6504 85.7316 15.906L87.0494 11.8505C87.1575 11.5175 87.039 11.1528 86.7558 10.9471L83.306 8.44062C82.6727 7.98054 82.9982 6.97893 83.7809 6.97893H88.0452C88.3952 6.97893 88.7055 6.75353 88.8136 6.42061L90.1314 2.36506Z" fill="#FFA41C"/>
</svg>
