<svg width="147" height="54" viewBox="0 0 147 54" fill="none" xmlns="http://www.w3.org/2000/svg">
<g clip-path="url(#clip0_4283_3958)">
<path d="M11.8371 15.0653L0.900391 7.5697V53.3052C2.92482 53.7774 6.76655 54.03 11.8371 52.3622V15.0653Z" fill="white"/>
<path d="M13.1709 51.8887V25.7733L20.3731 30.7257V39.4399V48.154C17.7948 49.844 15.3796 51.0473 13.1709 51.8887Z" fill="white"/>
<path d="M28.3752 7.88076L17.4385 0.341797V26.7104L22.1066 29.7889L22.1727 46.9218C24.5308 45.2197 26.6595 43.1917 28.3752 41.0726V7.88076Z" fill="white"/>
<path d="M55.1545 4.86987C56.1419 4.86987 56.8964 4.98143 57.418 5.20454C57.9396 5.42764 58.3961 5.66934 58.7873 5.92963C59.0108 6.05979 59.1878 6.16204 59.3182 6.23642C59.4673 6.29219 59.6071 6.32008 59.7375 6.32008C59.9238 6.32008 60.0542 6.21782 60.1286 6.0133C60.2218 5.80879 60.2964 5.50201 60.3522 5.09298H60.995C60.9763 5.42765 60.9483 5.82738 60.9111 6.29219C60.8925 6.7384 60.8739 7.33336 60.8552 8.07707C60.8552 8.82075 60.8552 9.79682 60.8552 11.0054H60.2125C60.1566 10.0943 59.9517 9.21118 59.5977 8.35591C59.2624 7.50069 58.7593 6.80348 58.0887 6.2643C57.4366 5.72512 56.5983 5.45553 55.5737 5.45553C54.6235 5.45553 53.8318 5.74371 53.1984 6.32008C52.5836 6.87785 52.2761 7.62154 52.2761 8.55113C52.2761 9.36923 52.4811 10.0572 52.891 10.6149C53.3008 11.1541 53.8597 11.6654 54.5677 12.1488C55.2942 12.6136 56.1139 13.1342 57.0268 13.7105C57.9583 14.3055 58.7967 14.9004 59.5418 15.4954C60.287 16.0718 60.8739 16.7132 61.3024 17.4197C61.7308 18.1262 61.9451 18.9815 61.9451 19.9855C61.9451 21.1939 61.6563 22.198 61.0788 22.9974C60.5199 23.7783 59.7654 24.364 58.8152 24.7544C57.8651 25.1448 56.8219 25.34 55.6854 25.34C54.6422 25.34 53.8131 25.2285 53.1984 25.0054C52.5836 24.7823 52.0619 24.5499 51.6335 24.3081C51.2236 24.0479 50.9069 23.9177 50.6833 23.9177C50.497 23.9177 50.3573 24.02 50.2641 24.2245C50.1897 24.429 50.1245 24.7358 50.0685 25.1448H49.4258C49.463 24.7358 49.4817 24.2617 49.4817 23.7225C49.5003 23.1647 49.5096 22.4396 49.5096 21.5472C49.5283 20.6548 49.5376 19.5299 49.5376 18.1727H50.1803C50.2548 19.3254 50.4597 20.4038 50.7951 21.4077C51.149 22.4118 51.68 23.2205 52.388 23.8341C53.1145 24.429 54.074 24.7265 55.2663 24.7265C55.8997 24.7265 56.4865 24.6056 57.0268 24.364C57.567 24.1222 58.0048 23.7411 58.3402 23.2205C58.6755 22.6999 58.8432 22.0306 58.8432 21.2125C58.8432 20.4503 58.6569 19.7809 58.2843 19.2046C57.9303 18.6282 57.4273 18.0983 56.7753 17.6149C56.1419 17.113 55.3967 16.6017 54.5397 16.0811C53.6641 15.5233 52.8443 14.9655 52.0805 14.4078C51.3168 13.85 50.7019 13.1992 50.2362 12.4556C49.7891 11.7119 49.5655 10.8287 49.5655 9.80612C49.5655 8.672 49.8263 7.74239 50.348 7.01729C50.8882 6.29219 51.5775 5.75301 52.4159 5.39975C53.2729 5.0465 54.1857 4.86987 55.1545 4.86987Z" fill="white"/>
<path d="M68.8761 9.3092V13.1218H72.052V13.5811H68.8761V22.6071C68.8761 23.2349 68.9912 23.6789 69.2213 23.9392C69.4514 24.1995 69.7813 24.3296 70.2109 24.3296C70.6098 24.3296 70.9627 24.1689 71.2695 23.8473C71.5917 23.5258 71.8679 22.9822 72.098 22.2167L72.5353 22.3775C72.3512 23.189 72.0213 23.878 71.5456 24.4445C71.0854 24.9957 70.4027 25.2713 69.4974 25.2713C68.9759 25.2713 68.5386 25.2024 68.1857 25.0646C67.8328 24.9421 67.526 24.7584 67.2652 24.5134C66.9277 24.1612 66.6975 23.7402 66.5748 23.2502C66.452 22.7602 66.3907 22.1095 66.3907 21.298V13.5811H64.2734V13.1218H66.3907V9.76856C66.8663 9.75325 67.3112 9.71494 67.7254 9.6537C68.1397 9.57716 68.5232 9.4623 68.8761 9.3092Z" fill="white"/>
<path d="M77.0123 25.1103C76.368 25.1103 75.8157 24.9878 75.3554 24.7428C74.8952 24.4979 74.5499 24.161 74.3198 23.7323C74.0896 23.3036 73.9746 22.8136 73.9746 22.2624C73.9746 21.5887 74.128 21.0451 74.4349 20.6318C74.7417 20.203 75.1329 19.8585 75.6085 19.5982C76.0995 19.3379 76.6135 19.1236 77.1508 18.9551C77.703 18.7714 78.2164 18.603 78.6924 18.4498C79.1829 18.2814 79.582 18.09 79.889 17.8757C80.2112 17.6614 80.3726 17.3781 80.3726 17.0259V15.4642C80.3726 14.913 80.2805 14.4765 80.0962 14.1551C79.9271 13.8182 79.6894 13.5808 79.3825 13.4431C79.0915 13.3053 78.7381 13.2363 78.3238 13.2363C77.9711 13.2363 77.5956 13.29 77.1965 13.3971C76.7976 13.489 76.4831 13.6804 76.2529 13.9713C76.5905 14.0632 76.8666 14.2469 77.0815 14.5225C77.3115 14.7828 77.4265 15.112 77.4265 15.5101C77.4265 15.9388 77.2811 16.2757 76.9893 16.5206C76.7132 16.7656 76.3603 16.8881 75.9307 16.8881C75.4551 16.8881 75.1022 16.7426 74.8721 16.4518C74.642 16.1455 74.5269 15.7934 74.5269 15.3953C74.5269 14.9818 74.6267 14.645 74.8261 14.3847C75.0409 14.1244 75.317 13.8794 75.6545 13.6498C76.0228 13.4048 76.4907 13.1981 77.0583 13.0296C77.6413 12.8612 78.2857 12.777 78.9917 12.777C79.6513 12.777 80.2188 12.8536 80.6948 13.0067C81.1853 13.1445 81.5921 13.3741 81.9142 13.6957C82.2981 14.0479 82.551 14.4919 82.6736 15.0278C82.7962 15.5484 82.8579 16.1838 82.8579 16.934V23.273C82.8579 23.6557 82.9036 23.9314 82.9958 24.0998C83.1032 24.2529 83.2723 24.3294 83.5023 24.3294C83.6554 24.3294 83.8016 24.2912 83.9395 24.2146C84.0926 24.1381 84.2693 24.0232 84.4689 23.8701L84.6989 24.2605C84.3767 24.5208 84.0469 24.7275 83.7095 24.8806C83.3873 25.0338 82.9729 25.1103 82.4664 25.1103C81.9759 25.1103 81.5768 25.0338 81.2699 24.8806C80.9629 24.7275 80.7329 24.5055 80.579 24.2146C80.4412 23.9237 80.3726 23.5639 80.3726 23.1351C79.9735 23.7782 79.4975 24.2682 78.9453 24.605C78.3931 24.9419 77.7487 25.1103 77.0123 25.1103ZM78.1174 24.0079C78.5469 24.0079 78.9453 23.8854 79.3139 23.6404C79.697 23.3954 80.0505 23.0279 80.3726 22.538V17.9675C80.2036 18.2126 79.9583 18.4269 79.6361 18.6106C79.3139 18.7791 78.9681 18.9551 78.6003 19.1389C78.2324 19.3226 77.879 19.5369 77.5415 19.782C77.2194 20.0116 76.9509 20.3102 76.7362 20.6777C76.5214 21.0451 76.414 21.5122 76.414 22.0787C76.414 22.6758 76.5675 23.1504 76.8743 23.5026C77.1813 23.8395 77.5956 24.0079 78.1174 24.0079Z" fill="white"/>
<path d="M94.2003 12.777C94.8142 12.777 95.3123 12.8612 95.6962 13.0296C96.0953 13.1828 96.4251 13.3971 96.6856 13.6728C96.9621 13.9636 97.154 14.3388 97.2614 14.7981C97.384 15.2575 97.4449 15.8775 97.4449 16.6584V22.8136C97.4449 23.4567 97.5676 23.893 97.8136 24.1228C98.0741 24.3524 98.5037 24.4673 99.1023 24.4673V24.9495C98.8411 24.9342 98.4351 24.9189 97.8821 24.9036C97.3299 24.873 96.7853 24.8577 96.2484 24.8577C95.7266 24.8577 95.2049 24.873 94.6839 24.9036C94.1774 24.9189 93.7935 24.9342 93.5331 24.9495V24.4673C94.0548 24.4673 94.4227 24.3524 94.6375 24.1228C94.8523 23.893 94.9596 23.4567 94.9596 22.8136V16.0153C94.9596 15.5714 94.9216 15.1732 94.8446 14.821C94.7677 14.4536 94.607 14.1627 94.3617 13.9483C94.1157 13.7187 93.7478 13.6038 93.2566 13.6038C92.6891 13.6038 92.1826 13.7646 91.7378 14.0861C91.3082 14.4077 90.9632 14.8517 90.702 15.4182C90.4567 15.9694 90.3341 16.5895 90.3341 17.2785V22.8136C90.3341 23.4567 90.4415 23.893 90.6563 24.1228C90.8863 24.3524 91.2549 24.4673 91.7607 24.4673V24.9495C91.5154 24.9342 91.1392 24.9189 90.6334 24.9036C90.1421 24.873 89.628 24.8577 89.0911 24.8577C88.5701 24.8577 88.0247 24.873 87.4573 24.9036C86.8898 24.9189 86.4679 24.9342 86.1914 24.9495V24.4673C86.7901 24.4673 87.212 24.3524 87.4573 24.1228C87.7185 23.893 87.8488 23.4567 87.8488 22.8136V15.602C87.8488 14.913 87.7338 14.4077 87.5037 14.0861C87.273 13.7493 86.8358 13.5808 86.1914 13.5808V13.0986C86.6827 13.1445 87.158 13.1675 87.6188 13.1675C88.1405 13.1675 88.6234 13.1445 89.0682 13.0986C89.5282 13.0373 89.9502 12.9531 90.3341 12.8459V15.3493C90.7332 14.4 91.2778 13.734 91.9678 13.3512C92.6739 12.9684 93.418 12.777 94.2003 12.777Z" fill="white"/>
<path d="M106.686 6.98914C107.146 6.98914 107.553 7.05038 107.906 7.17287C108.258 7.29536 108.573 7.45613 108.849 7.65518C109.064 7.83891 109.241 8.06096 109.379 8.32122C109.517 8.58148 109.586 8.86474 109.586 9.17101C109.586 9.55382 109.456 9.87531 109.195 10.1356C108.949 10.3959 108.627 10.5261 108.228 10.5261C107.829 10.5261 107.491 10.4036 107.216 10.1586C106.939 9.91363 106.801 9.57674 106.801 9.148C106.801 8.79589 106.894 8.50493 107.077 8.27529C107.277 8.04565 107.546 7.88485 107.883 7.79298C107.836 7.67049 107.729 7.57097 107.561 7.49441C107.392 7.40254 107.162 7.35661 106.87 7.35661C106.533 7.35661 106.242 7.42551 105.996 7.56331C105.766 7.70111 105.581 7.88485 105.443 8.11451C105.275 8.40546 105.159 8.84182 105.098 9.42365C105.052 9.99017 105.029 10.8629 105.029 12.0419V13.1214H107.491V13.5806H105.029V22.5837C105.029 23.334 105.236 23.8393 105.651 24.0996C106.08 24.3445 106.655 24.4671 107.376 24.4671V24.9494C107.009 24.934 106.487 24.9187 105.812 24.9034C105.152 24.8728 104.446 24.8575 103.695 24.8575C103.158 24.8575 102.621 24.8728 102.084 24.9034C101.562 24.9187 101.163 24.934 100.887 24.9494V24.4671C101.485 24.4671 101.907 24.3522 102.152 24.1226C102.413 23.8928 102.544 23.4565 102.544 22.8134V13.5806H100.795V13.1214H102.544C102.544 12.218 102.582 11.4677 102.659 10.8706C102.751 10.2581 102.889 9.73753 103.073 9.30879C103.257 8.86474 103.503 8.47431 103.81 8.13751C104.132 7.80064 104.538 7.52503 105.029 7.31067C105.535 7.09632 106.088 6.98914 106.686 6.98914Z" fill="white"/>
<path d="M114.84 12.777C115.867 12.777 116.78 12.9914 117.578 13.4201C118.376 13.8488 119.013 14.5225 119.488 15.4412C119.964 16.3599 120.202 17.5618 120.202 19.047C120.202 20.5322 119.964 21.7342 119.488 22.6528C119.013 23.5562 118.376 24.2222 117.578 24.651C116.78 25.0644 115.867 25.271 114.84 25.271C113.827 25.271 112.914 25.0644 112.101 24.651C111.288 24.2222 110.644 23.5562 110.168 22.6528C109.708 21.7342 109.478 20.5322 109.478 19.047C109.478 17.5618 109.708 16.3599 110.168 15.4412C110.644 14.5225 111.288 13.8488 112.101 13.4201C112.914 12.9914 113.827 12.777 114.84 12.777ZM114.84 13.2363C114.041 13.2363 113.389 13.6957 112.883 14.6144C112.377 15.5177 112.124 16.9953 112.124 19.047C112.124 21.0987 112.377 22.5763 112.883 23.4796C113.389 24.3677 114.041 24.8118 114.84 24.8118C115.622 24.8118 116.266 24.3677 116.773 23.4796C117.294 22.5763 117.555 21.0987 117.555 19.047C117.555 16.9953 117.294 15.5177 116.773 14.6144C116.266 13.6957 115.622 13.2363 114.84 13.2363Z" fill="white"/>
<path d="M130.044 12.777C130.489 12.777 130.865 12.8689 131.171 13.0526C131.493 13.2363 131.732 13.4737 131.885 13.7646C132.054 14.0402 132.138 14.3541 132.138 14.7063C132.138 15.1502 132 15.533 131.724 15.8546C131.463 16.1608 131.11 16.3139 130.666 16.3139C130.282 16.3139 129.952 16.1991 129.675 15.9694C129.415 15.7398 129.285 15.4259 129.285 15.0278C129.285 14.691 129.369 14.4077 129.537 14.178C129.722 13.933 129.929 13.7416 130.159 13.6038C130.006 13.4814 129.822 13.4277 129.607 13.4431C129.192 13.4584 128.809 13.5961 128.456 13.8565C128.103 14.1014 127.804 14.423 127.559 14.821C127.313 15.2039 127.122 15.6173 126.983 16.0613C126.845 16.5053 126.776 16.9187 126.776 17.3016V22.5839C126.776 23.3342 126.983 23.8395 127.397 24.0998C127.812 24.3447 128.387 24.4673 129.123 24.4673V24.9495C128.77 24.9342 128.264 24.9189 127.604 24.9036C126.96 24.873 126.278 24.8577 125.556 24.8577C125.004 24.8577 124.452 24.873 123.9 24.9036C123.347 24.9189 122.925 24.9342 122.634 24.9495V24.4673C123.232 24.4673 123.654 24.3524 123.9 24.1228C124.16 23.893 124.29 23.4567 124.29 22.8136V15.602C124.29 14.913 124.175 14.4077 123.945 14.0861C123.715 13.7493 123.278 13.5808 122.634 13.5808V13.0986C123.124 13.1445 123.6 13.1675 124.06 13.1675C124.582 13.1675 125.065 13.1445 125.511 13.0986C125.971 13.0373 126.393 12.9531 126.776 12.8459V15.4871C126.96 15.0431 127.205 14.6144 127.512 14.201C127.819 13.7875 128.188 13.4507 128.617 13.1904C129.047 12.9148 129.522 12.777 130.044 12.777Z" fill="white"/>
<path d="M67.2597 33.5588C67.7353 33.5588 68.1341 33.7119 68.4563 34.0182C68.7786 34.3091 68.9397 34.6766 68.9397 35.1205C68.9397 35.5646 68.7786 35.9397 68.4563 36.246C68.1341 36.5369 67.7353 36.6823 67.2597 36.6823C66.784 36.6823 66.3851 36.5369 66.063 36.246C65.7408 35.9397 65.5797 35.5646 65.5797 35.1205C65.5797 34.6766 65.7408 34.3091 66.063 34.0182C66.3851 33.7119 66.784 33.5588 67.2597 33.5588ZM68.6405 39.0939V49.0615C68.6405 49.7046 68.7632 50.141 69.0087 50.3707C69.2695 50.6003 69.6991 50.7152 70.2974 50.7152V51.1975C70.0366 51.1822 69.63 51.1668 69.0777 51.1515C68.5407 51.1209 67.9884 51.1056 67.4208 51.1056C66.8838 51.1056 66.3314 51.1209 65.7638 51.1515C65.1961 51.1668 64.7742 51.1822 64.498 51.1975V50.7152C65.0964 50.7152 65.5183 50.6003 65.7638 50.3707C66.0246 50.141 66.155 49.7046 66.155 49.0615V41.8499C66.155 41.1609 66.04 40.6556 65.8099 40.3341C65.5797 39.9972 65.1424 39.8288 64.498 39.8288V39.3465C64.989 39.3925 65.4646 39.4154 65.9249 39.4154C66.4465 39.4154 66.9298 39.3925 67.3748 39.3465C67.835 39.2852 68.2569 39.2011 68.6405 39.0939Z" fill="white"/>
<path d="M79.4073 39.0249C80.0204 39.0249 80.5193 39.1091 80.9032 39.2775C81.3016 39.4306 81.6314 39.645 81.8926 39.9206C82.1691 40.2115 82.3603 40.5867 82.4677 41.046C82.5903 41.5053 82.652 42.1255 82.652 42.9063V49.0615C82.652 49.7045 82.7746 50.141 83.0199 50.3706C83.2811 50.6002 83.7107 50.7151 84.3086 50.7151V51.1974C84.0481 51.1821 83.6414 51.1668 83.0892 51.1515C82.537 51.1208 81.9924 51.1055 81.4554 51.1055C80.9337 51.1055 80.4119 51.1208 79.8902 51.1515C79.3845 51.1668 79.0006 51.1821 78.7401 51.1974V50.7151C79.2611 50.7151 79.6297 50.6002 79.8445 50.3706C80.0593 50.141 80.1667 49.7045 80.1667 49.0615V42.2633C80.1667 41.8192 80.1278 41.4211 80.0517 41.069C79.9747 40.7015 79.814 40.4106 79.568 40.1962C79.3228 39.9665 78.9549 39.8517 78.4636 39.8517C77.8962 39.8517 77.3897 40.0125 76.9447 40.334C76.5151 40.6555 76.1699 41.0996 75.9091 41.6661C75.6636 42.2173 75.5409 42.8374 75.5409 43.5264V49.0615C75.5409 49.7045 75.6483 50.141 75.8631 50.3706C76.0932 50.6002 76.4614 50.7151 76.9677 50.7151V51.1974C76.7222 51.1821 76.3463 51.1668 75.8401 51.1515C75.3491 51.1208 74.8351 51.1055 74.2982 51.1055C73.7765 51.1055 73.2318 51.1208 72.6642 51.1515C72.0965 51.1668 71.6746 51.1821 71.3984 51.1974V50.7151C71.9968 50.7151 72.4187 50.6002 72.6642 50.3706C72.925 50.141 73.0554 49.7045 73.0554 49.0615V41.8498C73.0554 41.1608 72.9403 40.6555 72.7102 40.334C72.4801 39.9972 72.0428 39.8288 71.3984 39.8288V39.3464C71.8894 39.3924 72.365 39.4153 72.8253 39.4153C73.3469 39.4153 73.8302 39.3924 74.2752 39.3464C74.7354 39.2852 75.1573 39.201 75.5409 39.0938V41.5972C75.9398 40.6479 76.4844 39.9819 77.1749 39.599C77.8802 39.2163 78.6243 39.0249 79.4073 39.0249Z" fill="white"/>
<path d="M88.5099 51.3582C87.8656 51.3582 87.3134 51.2357 86.8526 50.9907C86.3925 50.7457 86.0475 50.4088 85.8175 49.9802C85.5874 49.5514 85.4717 49.0615 85.4717 48.5102C85.4717 47.8366 85.6255 47.293 85.9325 46.8796C86.2394 46.4509 86.6302 46.1064 87.1062 45.8461C87.5967 45.5858 88.1108 45.3714 88.6478 45.203C89.2 45.0193 89.7141 44.8508 90.1902 44.6978C90.6807 44.5293 91.0798 44.3379 91.3867 44.1235C91.7089 43.9092 91.8696 43.6259 91.8696 43.2738V41.712C91.8696 41.1608 91.7775 40.7245 91.5939 40.4029C91.4248 40.0661 91.1872 39.8288 90.8802 39.691C90.5885 39.5531 90.2359 39.4843 89.8215 39.4843C89.4689 39.4843 89.0926 39.5378 88.6943 39.645C88.2952 39.7369 87.9806 39.9282 87.7506 40.2192C88.088 40.311 88.3637 40.4948 88.5785 40.7704C88.8093 41.0307 88.9243 41.3598 88.9243 41.758C88.9243 42.1867 88.7781 42.5235 88.4871 42.7685C88.2106 43.0135 87.858 43.136 87.4284 43.136C86.9523 43.136 86.5997 42.9906 86.3697 42.6996C86.1397 42.3934 86.0246 42.0412 86.0246 41.6431C86.0246 41.2298 86.1244 40.8929 86.3232 40.6326C86.538 40.3723 86.8145 40.1273 87.1519 39.8976C87.5205 39.6527 87.9882 39.4459 88.5556 39.2775C89.1391 39.1091 89.7834 39.0249 90.4887 39.0249C91.1483 39.0249 91.7165 39.1014 92.1918 39.2545C92.6831 39.3923 93.0898 39.622 93.412 39.9435C93.7951 40.2957 94.0487 40.7398 94.1714 41.2757C94.294 41.7963 94.3549 42.4317 94.3549 43.1819V49.5208C94.3549 49.9036 94.4014 50.1792 94.4936 50.3476C94.6009 50.5008 94.7693 50.5773 94.9993 50.5773C95.1532 50.5773 95.2986 50.539 95.4365 50.4625C95.5903 50.3859 95.7671 50.2711 95.9658 50.118L96.1966 50.5084C95.8744 50.7687 95.5439 50.9754 95.2065 51.1285C94.8843 51.2816 94.4699 51.3582 93.9642 51.3582C93.4729 51.3582 93.0738 51.2816 92.7676 51.1285C92.4607 50.9754 92.2307 50.7534 92.0768 50.4625C91.9389 50.1716 91.8696 49.8117 91.8696 49.383C91.4705 50.0261 90.9952 50.5161 90.443 50.8529C89.8908 51.1898 89.2465 51.3582 88.5099 51.3582ZM89.6144 50.2557C90.0439 50.2557 90.443 50.1333 90.8109 49.8883C91.1948 49.6433 91.5474 49.2759 91.8696 48.7859V44.2155C91.7013 44.4604 91.4553 44.6748 91.1331 44.8585C90.8109 45.0269 90.4659 45.203 90.098 45.3868C89.7294 45.5705 89.3767 45.7849 89.0393 46.0298C88.7171 46.2595 88.4483 46.5581 88.2335 46.9255C88.0187 47.293 87.9113 47.76 87.9113 48.3265C87.9113 48.9237 88.0651 49.3983 88.3721 49.7505C88.6783 50.0873 89.0926 50.2557 89.6144 50.2557Z" fill="white"/>
<path d="M104.892 39.0249C105.506 39.0249 106.004 39.1091 106.388 39.2775C106.787 39.4306 107.116 39.645 107.377 39.9206C107.653 40.2115 107.845 40.5867 107.953 41.046C108.075 41.5053 108.136 42.1255 108.136 42.9063V49.0615C108.136 49.7045 108.26 50.141 108.505 50.3706C108.765 50.6002 109.195 50.7151 109.794 50.7151V51.1974C109.532 51.1821 109.127 51.1668 108.574 51.1515C108.021 51.1208 107.477 51.1055 106.94 51.1055C106.418 51.1055 105.897 51.1208 105.375 51.1515C104.869 51.1668 104.485 51.1821 104.224 51.1974V50.7151C104.746 50.7151 105.114 50.6002 105.329 50.3706C105.544 50.141 105.651 49.7045 105.651 49.0615V42.2633C105.651 41.8192 105.613 41.4211 105.536 41.069C105.459 40.7015 105.298 40.4106 105.053 40.1962C104.807 39.9665 104.439 39.8517 103.948 39.8517C103.381 39.8517 102.874 40.0125 102.429 40.334C102 40.6555 101.655 41.0996 101.394 41.6661C101.148 42.2173 101.025 42.8374 101.025 43.5264V49.0615C101.025 49.7045 101.133 50.141 101.348 50.3706C101.578 50.6002 101.946 50.7151 102.452 50.7151V51.1974C102.207 51.1821 101.831 51.1668 101.325 51.1515C100.834 51.1208 100.319 51.1055 99.7825 51.1055C99.2615 51.1055 98.7169 51.1208 98.1487 51.1515C97.5813 51.1668 97.1593 51.1821 96.8828 51.1974V50.7151C97.4815 50.7151 97.9034 50.6002 98.1487 50.3706C98.4099 50.141 98.5402 49.7045 98.5402 49.0615V41.8498C98.5402 41.1608 98.4252 40.6555 98.1952 40.334C97.9651 39.9972 97.5272 39.8288 96.8828 39.8288V39.3464C97.3741 39.3924 97.8494 39.4153 98.3102 39.4153C98.8319 39.4153 99.3148 39.3924 99.7596 39.3464C100.22 39.2852 100.642 39.201 101.025 39.0938V41.5972C101.425 40.6479 101.969 39.9819 102.659 39.599C103.365 39.2163 104.109 39.0249 104.892 39.0249Z" fill="white"/>
<path d="M116.594 39.0249C117.116 39.0249 117.615 39.0938 118.09 39.2316C118.566 39.3541 118.981 39.5302 119.333 39.7598C119.701 39.9895 119.978 40.2651 120.162 40.5867C120.361 40.9082 120.461 41.2604 120.461 41.6431C120.461 42.1025 120.33 42.4623 120.07 42.7226C119.809 42.9829 119.471 43.113 119.057 43.113C118.643 43.113 118.297 42.9982 118.022 42.7685C117.745 42.5388 117.607 42.2096 117.607 41.781C117.607 41.3829 117.722 41.0613 117.952 40.8163C118.182 40.556 118.451 40.3876 118.758 40.311C118.62 40.0814 118.374 39.89 118.022 39.7369C117.684 39.5684 117.316 39.4843 116.917 39.4843C116.503 39.4843 116.104 39.5914 115.72 39.8058C115.352 40.0202 115.022 40.3494 114.731 40.7933C114.439 41.2374 114.201 41.8116 114.017 42.5159C113.849 43.2202 113.764 44.07 113.764 45.0653C113.764 46.3514 113.909 47.3772 114.201 48.1428C114.508 48.8931 114.907 49.429 115.398 49.7505C115.889 50.072 116.418 50.2328 116.986 50.2328C117.354 50.2328 117.73 50.1639 118.114 50.0261C118.512 49.8883 118.888 49.6586 119.241 49.3371C119.61 49.0155 119.932 48.5792 120.208 48.028L120.645 48.1888C120.476 48.694 120.208 49.2069 119.84 49.7275C119.486 50.2481 119.019 50.6768 118.436 51.0137C117.853 51.3506 117.14 51.519 116.296 51.519C115.329 51.519 114.455 51.2816 113.672 50.807C112.89 50.3323 112.268 49.6433 111.808 48.74C111.348 47.8213 111.117 46.7035 111.117 45.3868C111.117 44.1006 111.348 42.9829 111.808 42.0335C112.283 41.069 112.935 40.3264 113.764 39.8058C114.593 39.2852 115.536 39.0249 116.594 39.0249Z" fill="white"/>
<path d="M124.772 33.5588C125.247 33.5588 125.646 33.7119 125.968 34.0182C126.29 34.3091 126.451 34.6766 126.451 35.1205C126.451 35.5646 126.29 35.9397 125.968 36.246C125.646 36.5369 125.247 36.6823 124.772 36.6823C124.296 36.6823 123.896 36.5369 123.574 36.246C123.252 35.9397 123.091 35.5646 123.091 35.1205C123.091 34.6766 123.252 34.3091 123.574 34.0182C123.896 33.7119 124.296 33.5588 124.772 33.5588ZM126.152 39.0939V49.0615C126.152 49.7046 126.275 50.141 126.52 50.3707C126.781 50.6003 127.21 50.7152 127.809 50.7152V51.1975C127.548 51.1822 127.142 51.1668 126.589 51.1515C126.052 51.1209 125.5 51.1056 124.932 51.1056C124.395 51.1056 123.843 51.1209 123.276 51.1515C122.707 51.1668 122.285 51.1822 122.01 51.1975V50.7152C122.608 50.7152 123.03 50.6003 123.276 50.3707C123.536 50.141 123.666 49.7046 123.666 49.0615V41.8499C123.666 41.1609 123.551 40.6556 123.321 40.3341C123.091 39.9972 122.654 39.8288 122.01 39.8288V39.3465C122.5 39.3925 122.976 39.4154 123.436 39.4154C123.958 39.4154 124.441 39.3925 124.887 39.3465C125.347 39.2852 125.769 39.2011 126.152 39.0939Z" fill="white"/>
<path d="M132.154 51.3582C131.51 51.3582 130.957 51.2357 130.497 50.9907C130.037 50.7457 129.692 50.4088 129.461 49.9802C129.231 49.5514 129.116 49.0615 129.116 48.5102C129.116 47.8366 129.27 47.293 129.576 46.8796C129.883 46.4509 130.275 46.1064 130.75 45.8461C131.241 45.5858 131.755 45.3714 132.292 45.203C132.845 45.0193 133.359 44.8508 133.834 44.6978C134.325 44.5293 134.724 44.3379 135.031 44.1235C135.353 43.9092 135.514 43.6259 135.514 43.2738V41.712C135.514 41.1608 135.422 40.7245 135.238 40.4029C135.069 40.0661 134.831 39.8288 134.525 39.691C134.233 39.5531 133.88 39.4843 133.466 39.4843C133.113 39.4843 132.737 39.5378 132.338 39.645C131.94 39.7369 131.625 39.9282 131.394 40.2192C131.733 40.311 132.008 40.4948 132.223 40.7704C132.453 41.0307 132.568 41.3598 132.568 41.758C132.568 42.1867 132.423 42.5235 132.131 42.7685C131.855 43.0135 131.502 43.136 131.072 43.136C130.597 43.136 130.244 42.9906 130.014 42.6996C129.783 42.3934 129.668 42.0412 129.668 41.6431C129.668 41.2298 129.768 40.8929 129.968 40.6326C130.183 40.3723 130.459 40.1273 130.796 39.8976C131.164 39.6527 131.633 39.4459 132.2 39.2775C132.783 39.1091 133.427 39.0249 134.133 39.0249C134.793 39.0249 135.36 39.1014 135.836 39.2545C136.327 39.3923 136.734 39.622 137.056 39.9435C137.44 40.2957 137.693 40.7398 137.815 41.2757C137.938 41.7963 137.999 42.4317 137.999 43.1819V49.5208C137.999 49.9036 138.045 50.1792 138.137 50.3476C138.245 50.5008 138.414 50.5773 138.644 50.5773C138.797 50.5773 138.943 50.539 139.081 50.4625C139.235 50.3859 139.411 50.2711 139.61 50.118L139.84 50.5084C139.518 50.7687 139.188 50.9754 138.851 51.1285C138.529 51.2816 138.114 51.3582 137.608 51.3582C137.117 51.3582 136.718 51.2816 136.411 51.1285C136.104 50.9754 135.874 50.7534 135.721 50.4625C135.583 50.1716 135.514 49.8117 135.514 49.383C135.115 50.0261 134.64 50.5161 134.088 50.8529C133.535 51.1898 132.89 51.3582 132.154 51.3582ZM133.259 50.2557C133.688 50.2557 134.088 50.1333 134.455 49.8883C134.839 49.6433 135.192 49.2759 135.514 48.7859V44.2155C135.345 44.4604 135.1 44.6748 134.778 44.8585C134.455 45.0269 134.11 45.203 133.742 45.3868C133.374 45.5705 133.021 45.7849 132.683 46.0298C132.361 46.2595 132.093 46.5581 131.878 46.9255C131.663 47.293 131.556 47.76 131.556 48.3265C131.556 48.9237 131.709 49.3983 132.016 49.7505C132.323 50.0873 132.737 50.2557 133.259 50.2557Z" fill="white"/>
<path d="M144.533 33.1917V49.0619C144.533 49.7049 144.656 50.1414 144.901 50.371C145.162 50.6006 145.591 50.7155 146.19 50.7155V51.1978C145.929 51.1825 145.523 51.1672 144.97 51.1518C144.418 51.1212 143.865 51.1059 143.313 51.1059C142.761 51.1059 142.201 51.1212 141.633 51.1518C141.081 51.1672 140.666 51.1825 140.391 51.1978V50.7155C140.989 50.7155 141.41 50.6006 141.656 50.371C141.917 50.1414 142.047 49.7049 142.047 49.0619V35.9477C142.047 35.2587 141.932 34.7534 141.702 34.4319C141.472 34.0951 141.035 33.9266 140.391 33.9266V33.4443C140.881 33.4902 141.357 33.5132 141.817 33.5132C142.324 33.5132 142.807 33.4902 143.267 33.4443C143.727 33.3831 144.149 33.2988 144.533 33.1917Z" fill="white"/>
<path d="M63.1177 31.4521C63.0431 32.1958 62.9873 32.9209 62.9499 33.6275C62.9314 34.334 62.922 34.8731 62.922 35.245C62.922 35.6727 62.9314 36.0817 62.9499 36.4721C62.9686 36.8625 62.9873 37.1972 63.0059 37.4761H62.3632C62.1954 36.1188 61.9626 35.0591 61.6645 34.2968C61.385 33.5159 60.9566 32.9582 60.379 32.6235C59.8015 32.2702 58.9725 32.0936 57.892 32.0936H56.4109C55.8147 32.0936 55.3583 32.1494 55.0416 32.261C54.7435 32.3539 54.5386 32.5584 54.4268 32.8745C54.315 33.172 54.2592 33.646 54.2592 34.2968V41.2131H55.9638C56.5599 41.2131 57.0257 41.0923 57.361 40.8506C57.715 40.6089 57.9851 40.2928 58.1714 39.9024C58.3577 39.512 58.4881 39.1123 58.5626 38.7032C58.6558 38.2756 58.7303 37.8851 58.7862 37.5319H59.4289C59.3544 38.5917 59.3171 39.4004 59.3171 39.9582C59.3358 40.5159 59.3451 41.0272 59.3451 41.4921C59.3451 41.9568 59.3544 42.4681 59.373 43.0259C59.3917 43.5837 59.4382 44.3925 59.5128 45.4522H58.87C58.7955 44.8386 58.6837 44.253 58.5347 43.6952C58.3857 43.1189 58.1155 42.6541 57.7243 42.3008C57.3331 41.9475 56.7462 41.7709 55.9638 41.7709H54.2592V48.1853C54.2592 48.8732 54.3337 49.3938 54.4827 49.747C54.6318 50.0817 54.9112 50.3048 55.3211 50.4164C55.7309 50.528 56.3364 50.593 57.1375 50.6116V51.1972C56.6345 51.1601 55.9824 51.1415 55.1813 51.1415C54.3803 51.1229 53.5512 51.1136 52.6943 51.1136C51.9491 51.1136 51.2318 51.1229 50.5425 51.1415C49.8718 51.1415 49.3036 51.1601 48.8379 51.1972V50.6395C49.4713 50.6023 49.9463 50.528 50.263 50.4164C50.5797 50.3048 50.7847 50.0817 50.8778 49.747C50.9896 49.4123 51.0455 48.9104 51.0455 48.2411V34.4084C51.0455 33.7205 50.9896 33.2184 50.8778 32.9024C50.7847 32.5677 50.5704 32.3446 50.2351 32.2331C49.9184 32.1029 49.4526 32.0286 48.8379 32.0099V31.4521C49.5644 31.4707 50.3189 31.4894 51.1014 31.508C51.9024 31.508 52.6849 31.5173 53.4488 31.5359H55.6284H57.2772H60.1834C61.2826 31.5173 62.2606 31.4894 63.1177 31.4521Z" fill="white"/>
<path fill-rule="evenodd" clip-rule="evenodd" d="M144.211 6.94336V22.4461C144.211 23.1351 144.326 23.6481 144.556 23.9849C144.802 24.3064 145.239 24.4672 145.868 24.4672V24.9495C145.392 24.9036 144.917 24.8806 144.441 24.8806C143.919 24.8806 143.429 24.9036 142.969 24.9495C142.523 24.9954 142.11 25.0797 141.726 25.2022V23.139C141.53 23.6628 141.253 24.0978 140.897 24.4442C140.314 24.9954 139.532 25.271 138.55 25.271C137.614 25.271 136.786 25.0491 136.064 24.605C135.359 24.1457 134.814 23.4567 134.431 22.5379C134.047 21.604 133.855 20.4326 133.855 19.024C133.855 17.6307 134.085 16.4747 134.546 15.556C135.021 14.622 135.65 13.9253 136.433 13.466C137.215 13.0067 138.082 12.7769 139.033 12.7769C139.708 12.7769 140.322 12.9224 140.874 13.2134C141.221 13.3911 141.505 13.6432 141.726 13.9695V9.69938C141.726 9.01038 141.603 8.50509 141.358 8.18359C141.127 7.84673 140.697 7.67831 140.069 7.67831V7.19599C140.56 7.24193 141.036 7.2649 141.496 7.2649C142.002 7.2649 142.485 7.24193 142.945 7.19599C143.406 7.13475 143.828 7.05054 144.211 6.94336ZM139.448 13.3512C139.969 13.3512 140.437 13.4813 140.851 13.7416C141.223 13.9616 141.515 14.3048 141.726 14.7716V22.0411C141.592 22.7542 141.323 23.3179 140.92 23.7322C140.445 24.2375 139.908 24.4902 139.309 24.4902C138.711 24.4902 138.197 24.2987 137.767 23.916C137.353 23.5332 137.038 22.9438 136.824 22.1475C136.609 21.336 136.501 20.2948 136.501 19.024C136.486 17.0948 136.755 15.6708 137.307 14.7522C137.86 13.8181 138.573 13.3512 139.448 13.3512Z" fill="white"/>
</g>
<defs>
<clipPath id="clip0_4283_3958">
<rect width="145.477" height="53.3163" fill="white" transform="translate(0.900391 0.341797)"/>
</clipPath>
</defs>
</svg>
