<svg width="20" height="20" viewBox="0 0 20 20" fill="none" xmlns="http://www.w3.org/2000/svg">
<path d="M10.006 16.2345C10.006 16.5868 9.80245 16.9069 9.48387 17.0563C9.36069 17.1145 9.2287 17.1427 9.09757 17.1427C8.88992 17.1427 8.68419 17.0713 8.51802 16.9335L3.55274 12.8191H0.908231C0.406716 12.8195 0 12.4126 0 11.9111V8.29254C0 7.7908 0.406716 7.38409 0.908231 7.38409H3.55296L8.51824 3.26964C8.78953 3.04479 9.16572 2.99685 9.48408 3.14733C9.80245 3.29673 10.0062 3.61703 10.0062 3.96914L10.006 16.2345ZM13.4964 14.8152C13.4743 14.8168 13.453 14.8176 13.4311 14.8176C13.1912 14.8176 12.9599 14.7228 12.789 14.5517L12.6675 14.4298C12.3489 14.1119 12.3115 13.6082 12.5798 13.2466C13.26 12.3296 13.619 11.2425 13.619 10.1021C13.619 8.87552 13.2114 7.72503 12.4401 6.77488C12.1464 6.41373 12.1735 5.88922 12.5026 5.56032L12.6239 5.43886C12.8053 5.25743 13.0484 5.15855 13.3116 5.17424C13.5678 5.18714 13.807 5.30773 13.9696 5.50636C15.0394 6.8155 15.6046 8.40496 15.6046 10.1023C15.6046 11.6832 15.1048 13.188 14.1589 14.4532C14.0009 14.6641 13.7593 14.7965 13.4964 14.8152ZM17.2514 17.6221C17.0872 17.8162 16.8497 17.9327 16.5954 17.9434C16.5829 17.9439 16.5702 17.9443 16.5573 17.9443C16.3168 17.9443 16.0859 17.8493 15.915 17.6784L15.7957 17.5591C15.4623 17.2259 15.4397 16.693 15.7428 16.3323C17.2076 14.5902 18.0146 12.3777 18.0146 10.1021C18.0146 7.73513 17.1506 5.45649 15.5824 3.68603C15.2645 3.32661 15.2806 2.78253 15.619 2.44288L15.7381 2.32358C15.9148 2.14602 16.1444 2.04821 16.4077 2.05659C16.6577 2.06368 16.8942 2.17418 17.0603 2.3612C18.9559 4.49538 20 7.24479 20 10.1021C20.0004 12.8513 19.0243 15.5221 17.2514 17.6221Z" fill="white"/>
</svg>
